<?xml version="1.0" encoding="UTF-8"?>
<svg id="Layer_1" xmlns="http://www.w3.org/2000/svg" version="1.1" viewBox="0 0 205 205">
  <!-- Generator: Adobe Illustrator 30.1.0, SVG Export Plug-In . SVG Version: 2.1.1 Build 136)  -->
  <defs>
    <style>
      .st0 {
        fill: #191919;
      }
    </style>
  </defs>
  <path class="st0" d="M50.5625,69.1277c-2.6018-2.4157-3.8957-5.4059-3.8957-8.9637s1.3008-6.6796,3.8957-9.1022c2.6018-2.4157,5.951-3.627,10.0544-3.627s7.3211,1.2113,9.916,3.627c2.6018,2.4157,3.8958,5.4545,3.8958,9.1022s-1.3009,6.548-3.8958,8.9637c-2.6018,2.4157-5.9025,3.627-9.916,3.627s-7.4526-1.2113-10.0544-3.627ZM72.2421,82.9851v74.0629h-23.3956v-74.0629h23.3956Z"/>
  <path class="st0" d="M150.123,90.3012c5.1,5.5374,7.647,13.1378,7.647,22.8138v42.625h-22.219v-39.621c0-4.879-1.267-8.672-3.792-11.372-2.526-2.699-5.931-4.056-10.193-4.056s-7.667,1.35-10.193,4.056c-2.526,2.7-3.792,6.493-3.792,11.372v39.621h-22.3505v-72.9626h22.3505v9.6766c2.263-3.2256,5.315-5.7728,9.148-7.6486,3.834-1.8758,8.145-2.8103,12.94-2.8103,8.539,0,15.362,2.7687,20.454,8.3061Z"/>
  <path class="st0" d="M188.5,16.5v172H16.5V16.5h172M189.5265,4.5H15.4735c-6.0605,0-10.9735,4.913-10.9735,10.9735v174.0529c0,6.0605,4.913,10.9735,10.9735,10.9735h174.0529c6.0605,0,10.9735-4.913,10.9735-10.9735V15.4735c0-6.0605-4.913-10.9735-10.9735-10.9735h0Z"/>
</svg>